<?xml version="1.0" encoding="utf-8" standalone="no"?>
<!DOCTYPE svg PUBLIC "-//W3C//DTD SVG 1.1//EN" "http://www.w3.org/Graphics/SVG/1.1/DTD/svg11.dtd">

<svg width="210mm" height="297mm" viewBox="0 0 210 297" xmlns="http://www.w3.org/2000/svg" xmlns:xlink="http://www.w3.org/1999/xlink" version="1.1" style="stroke:black; fill:none; stroke-width:0.5pt; stroke-linejoin:round; text-anchor:middle" font-family="Helvetica, Arial, FreeSans, Sans, sans, sans-serif">

<g>

<rect x="25.0" y="38.5" width="20.0" height="20.0" fill="black" stroke="none" />

<rect x="50.0" y="43.5" width="10.0" height="10.0" fill="black" stroke="none" />

<rect x="51.42857142857143" y="44.92857142857143" width="1.4285714285714286" height="1.4285714285714286" fill="white" stroke="white" stroke-width="0.2" />

<rect x="51.42857142857143" y="46.357142857142854" width="1.4285714285714286" height="1.4285714285714286" fill="white" stroke="white" stroke-width="0.2" />

<rect x="51.42857142857143" y="47.785714285714285" width="1.4285714285714286" height="1.4285714285714286" fill="white" stroke="white" stroke-width="0.2" />

<rect x="51.42857142857143" y="49.214285714285715" width="1.4285714285714286" height="1.4285714285714286" fill="white" stroke="white" stroke-width="0.2" />

<rect x="51.42857142857143" y="50.642857142857146" width="1.4285714285714286" height="1.4285714285714286" fill="white" stroke="white" stroke-width="0.2" />

<rect x="65.0" y="38.5" width="20.0" height="20.0" fill="black" stroke="none" />

<rect x="90.0" y="43.5" width="10.0" height="10.0" fill="black" stroke="none" />

<rect x="91.42857142857143" y="44.92857142857143" width="1.4285714285714286" height="1.4285714285714286" fill="white" stroke="white" stroke-width="0.2" />

<rect x="91.42857142857143" y="46.357142857142854" width="1.4285714285714286" height="1.4285714285714286" fill="white" stroke="white" stroke-width="0.2" />

<rect x="91.42857142857143" y="47.785714285714285" width="1.4285714285714286" height="1.4285714285714286" fill="white" stroke="white" stroke-width="0.2" />

<rect x="91.42857142857143" y="49.214285714285715" width="1.4285714285714286" height="1.4285714285714286" fill="white" stroke="white" stroke-width="0.2" />

<rect x="91.42857142857143" y="50.642857142857146" width="1.4285714285714286" height="1.4285714285714286" fill="white" stroke="white" stroke-width="0.2" />

<rect x="94.28571428571429" y="50.642857142857146" width="1.4285714285714286" height="1.4285714285714286" fill="white" stroke="white" stroke-width="0.2" />

<rect x="95.71428571428571" y="50.642857142857146" width="1.4285714285714286" height="1.4285714285714286" fill="white" stroke="white" stroke-width="0.2" />

<rect x="97.14285714285714" y="50.642857142857146" width="1.4285714285714286" height="1.4285714285714286" fill="white" stroke="white" stroke-width="0.2" />

<rect x="105.0" y="38.5" width="20.0" height="20.0" fill="black" stroke="none" />

<rect x="130.0" y="43.5" width="10.0" height="10.0" fill="black" stroke="none" />

<rect x="131.42857142857142" y="44.92857142857143" width="1.4285714285714286" height="1.4285714285714286" fill="white" stroke="white" stroke-width="0.2" />

<rect x="131.42857142857142" y="46.357142857142854" width="1.4285714285714286" height="1.4285714285714286" fill="white" stroke="white" stroke-width="0.2" />

<rect x="131.42857142857142" y="47.785714285714285" width="1.4285714285714286" height="1.4285714285714286" fill="white" stroke="white" stroke-width="0.2" />

<rect x="131.42857142857142" y="49.214285714285715" width="1.4285714285714286" height="1.4285714285714286" fill="white" stroke="white" stroke-width="0.2" />

<rect x="132.85714285714286" y="50.642857142857146" width="1.4285714285714286" height="1.4285714285714286" fill="white" stroke="white" stroke-width="0.2" />

<rect x="137.14285714285714" y="50.642857142857146" width="1.4285714285714286" height="1.4285714285714286" fill="white" stroke="white" stroke-width="0.2" />

<rect x="145.0" y="38.5" width="20.0" height="20.0" fill="black" stroke="none" />

<rect x="170.0" y="43.5" width="10.0" height="10.0" fill="black" stroke="none" />

<rect x="171.42857142857142" y="44.92857142857143" width="1.4285714285714286" height="1.4285714285714286" fill="white" stroke="white" stroke-width="0.2" />

<rect x="171.42857142857142" y="46.357142857142854" width="1.4285714285714286" height="1.4285714285714286" fill="white" stroke="white" stroke-width="0.2" />

<rect x="171.42857142857142" y="47.785714285714285" width="1.4285714285714286" height="1.4285714285714286" fill="white" stroke="white" stroke-width="0.2" />

<rect x="171.42857142857142" y="49.214285714285715" width="1.4285714285714286" height="1.4285714285714286" fill="white" stroke="white" stroke-width="0.2" />

<rect x="172.85714285714286" y="50.642857142857146" width="1.4285714285714286" height="1.4285714285714286" fill="white" stroke="white" stroke-width="0.2" />

<rect x="174.28571428571428" y="50.642857142857146" width="1.4285714285714286" height="1.4285714285714286" fill="white" stroke="white" stroke-width="0.2" />

<rect x="175.71428571428572" y="50.642857142857146" width="1.4285714285714286" height="1.4285714285714286" fill="white" stroke="white" stroke-width="0.2" />

<rect x="30.0" y="63.5" width="10.0" height="10.0" fill="black" stroke="none" />

<rect x="31.428571428571427" y="64.92857142857143" width="1.4285714285714286" height="1.4285714285714286" fill="white" stroke="white" stroke-width="0.2" />

<rect x="31.428571428571427" y="66.35714285714286" width="1.4285714285714286" height="1.4285714285714286" fill="white" stroke="white" stroke-width="0.2" />

<rect x="31.428571428571427" y="67.78571428571429" width="1.4285714285714286" height="1.4285714285714286" fill="white" stroke="white" stroke-width="0.2" />

<rect x="31.428571428571427" y="69.21428571428571" width="1.4285714285714286" height="1.4285714285714286" fill="white" stroke="white" stroke-width="0.2" />

<rect x="31.428571428571427" y="70.64285714285714" width="1.4285714285714286" height="1.4285714285714286" fill="white" stroke="white" stroke-width="0.2" />

<rect x="34.285714285714285" y="69.21428571428571" width="1.4285714285714286" height="1.4285714285714286" fill="white" stroke="white" stroke-width="0.2" />

<rect x="35.714285714285715" y="69.21428571428571" width="1.4285714285714286" height="1.4285714285714286" fill="white" stroke="white" stroke-width="0.2" />

<rect x="37.142857142857146" y="69.21428571428571" width="1.4285714285714286" height="1.4285714285714286" fill="white" stroke="white" stroke-width="0.2" />

<rect x="45.0" y="58.5" width="20.0" height="20.0" fill="black" stroke="none" />

<rect x="70.0" y="63.5" width="10.0" height="10.0" fill="black" stroke="none" />

<rect x="71.42857142857143" y="64.92857142857143" width="1.4285714285714286" height="1.4285714285714286" fill="white" stroke="white" stroke-width="0.2" />

<rect x="71.42857142857143" y="66.35714285714286" width="1.4285714285714286" height="1.4285714285714286" fill="white" stroke="white" stroke-width="0.2" />

<rect x="71.42857142857143" y="67.78571428571429" width="1.4285714285714286" height="1.4285714285714286" fill="white" stroke="white" stroke-width="0.2" />

<rect x="71.42857142857143" y="69.21428571428571" width="1.4285714285714286" height="1.4285714285714286" fill="white" stroke="white" stroke-width="0.2" />

<rect x="71.42857142857143" y="70.64285714285714" width="1.4285714285714286" height="1.4285714285714286" fill="white" stroke="white" stroke-width="0.2" />

<rect x="74.28571428571429" y="69.21428571428571" width="1.4285714285714286" height="1.4285714285714286" fill="white" stroke="white" stroke-width="0.2" />

<rect x="74.28571428571429" y="70.64285714285714" width="1.4285714285714286" height="1.4285714285714286" fill="white" stroke="white" stroke-width="0.2" />

<rect x="75.71428571428571" y="69.21428571428571" width="1.4285714285714286" height="1.4285714285714286" fill="white" stroke="white" stroke-width="0.2" />

<rect x="75.71428571428571" y="70.64285714285714" width="1.4285714285714286" height="1.4285714285714286" fill="white" stroke="white" stroke-width="0.2" />

<rect x="77.14285714285714" y="69.21428571428571" width="1.4285714285714286" height="1.4285714285714286" fill="white" stroke="white" stroke-width="0.2" />

<rect x="77.14285714285714" y="70.64285714285714" width="1.4285714285714286" height="1.4285714285714286" fill="white" stroke="white" stroke-width="0.2" />

<rect x="85.0" y="58.5" width="20.0" height="20.0" fill="black" stroke="none" />

<rect x="110.0" y="63.5" width="10.0" height="10.0" fill="black" stroke="none" />

<rect x="111.42857142857143" y="64.92857142857143" width="1.4285714285714286" height="1.4285714285714286" fill="white" stroke="white" stroke-width="0.2" />

<rect x="111.42857142857143" y="66.35714285714286" width="1.4285714285714286" height="1.4285714285714286" fill="white" stroke="white" stroke-width="0.2" />

<rect x="111.42857142857143" y="67.78571428571429" width="1.4285714285714286" height="1.4285714285714286" fill="white" stroke="white" stroke-width="0.2" />

<rect x="111.42857142857143" y="69.21428571428571" width="1.4285714285714286" height="1.4285714285714286" fill="white" stroke="white" stroke-width="0.2" />

<rect x="112.85714285714286" y="70.64285714285714" width="1.4285714285714286" height="1.4285714285714286" fill="white" stroke="white" stroke-width="0.2" />

<rect x="114.28571428571429" y="69.21428571428571" width="1.4285714285714286" height="1.4285714285714286" fill="white" stroke="white" stroke-width="0.2" />

<rect x="115.71428571428571" y="69.21428571428571" width="1.4285714285714286" height="1.4285714285714286" fill="white" stroke="white" stroke-width="0.2" />

<rect x="117.14285714285714" y="69.21428571428571" width="1.4285714285714286" height="1.4285714285714286" fill="white" stroke="white" stroke-width="0.2" />

<rect x="117.14285714285714" y="70.64285714285714" width="1.4285714285714286" height="1.4285714285714286" fill="white" stroke="white" stroke-width="0.2" />

<rect x="125.0" y="58.5" width="20.0" height="20.0" fill="black" stroke="none" />

<rect x="150.0" y="63.5" width="10.0" height="10.0" fill="black" stroke="none" />

<rect x="151.42857142857142" y="64.92857142857143" width="1.4285714285714286" height="1.4285714285714286" fill="white" stroke="white" stroke-width="0.2" />

<rect x="151.42857142857142" y="66.35714285714286" width="1.4285714285714286" height="1.4285714285714286" fill="white" stroke="white" stroke-width="0.2" />

<rect x="151.42857142857142" y="67.78571428571429" width="1.4285714285714286" height="1.4285714285714286" fill="white" stroke="white" stroke-width="0.2" />

<rect x="151.42857142857142" y="69.21428571428571" width="1.4285714285714286" height="1.4285714285714286" fill="white" stroke="white" stroke-width="0.2" />

<rect x="152.85714285714286" y="70.64285714285714" width="1.4285714285714286" height="1.4285714285714286" fill="white" stroke="white" stroke-width="0.2" />

<rect x="154.28571428571428" y="69.21428571428571" width="1.4285714285714286" height="1.4285714285714286" fill="white" stroke="white" stroke-width="0.2" />

<rect x="154.28571428571428" y="70.64285714285714" width="1.4285714285714286" height="1.4285714285714286" fill="white" stroke="white" stroke-width="0.2" />

<rect x="155.71428571428572" y="69.21428571428571" width="1.4285714285714286" height="1.4285714285714286" fill="white" stroke="white" stroke-width="0.2" />

<rect x="155.71428571428572" y="70.64285714285714" width="1.4285714285714286" height="1.4285714285714286" fill="white" stroke="white" stroke-width="0.2" />

<rect x="157.14285714285714" y="69.21428571428571" width="1.4285714285714286" height="1.4285714285714286" fill="white" stroke="white" stroke-width="0.2" />

<rect x="165.0" y="58.5" width="20.0" height="20.0" fill="black" stroke="none" />

<rect x="25.0" y="78.5" width="20.0" height="20.0" fill="black" stroke="none" />

<rect x="50.0" y="83.5" width="10.0" height="10.0" fill="black" stroke="none" />

<rect x="51.42857142857143" y="84.92857142857143" width="1.4285714285714286" height="1.4285714285714286" fill="white" stroke="white" stroke-width="0.2" />

<rect x="51.42857142857143" y="86.35714285714286" width="1.4285714285714286" height="1.4285714285714286" fill="white" stroke="white" stroke-width="0.2" />

<rect x="51.42857142857143" y="87.78571428571429" width="1.4285714285714286" height="1.4285714285714286" fill="white" stroke="white" stroke-width="0.2" />

<rect x="51.42857142857143" y="90.64285714285714" width="1.4285714285714286" height="1.4285714285714286" fill="white" stroke="white" stroke-width="0.2" />

<rect x="52.857142857142854" y="89.21428571428571" width="1.4285714285714286" height="1.4285714285714286" fill="white" stroke="white" stroke-width="0.2" />

<rect x="57.142857142857146" y="89.21428571428571" width="1.4285714285714286" height="1.4285714285714286" fill="white" stroke="white" stroke-width="0.2" />

<rect x="65.0" y="78.5" width="20.0" height="20.0" fill="black" stroke="none" />

<rect x="90.0" y="83.5" width="10.0" height="10.0" fill="black" stroke="none" />

<rect x="91.42857142857143" y="84.92857142857143" width="1.4285714285714286" height="1.4285714285714286" fill="white" stroke="white" stroke-width="0.2" />

<rect x="91.42857142857143" y="86.35714285714286" width="1.4285714285714286" height="1.4285714285714286" fill="white" stroke="white" stroke-width="0.2" />

<rect x="91.42857142857143" y="87.78571428571429" width="1.4285714285714286" height="1.4285714285714286" fill="white" stroke="white" stroke-width="0.2" />

<rect x="91.42857142857143" y="90.64285714285714" width="1.4285714285714286" height="1.4285714285714286" fill="white" stroke="white" stroke-width="0.2" />

<rect x="92.85714285714286" y="89.21428571428571" width="1.4285714285714286" height="1.4285714285714286" fill="white" stroke="white" stroke-width="0.2" />

<rect x="94.28571428571429" y="90.64285714285714" width="1.4285714285714286" height="1.4285714285714286" fill="white" stroke="white" stroke-width="0.2" />

<rect x="95.71428571428571" y="90.64285714285714" width="1.4285714285714286" height="1.4285714285714286" fill="white" stroke="white" stroke-width="0.2" />

<rect x="97.14285714285714" y="89.21428571428571" width="1.4285714285714286" height="1.4285714285714286" fill="white" stroke="white" stroke-width="0.2" />

<rect x="97.14285714285714" y="90.64285714285714" width="1.4285714285714286" height="1.4285714285714286" fill="white" stroke="white" stroke-width="0.2" />

<rect x="105.0" y="78.5" width="20.0" height="20.0" fill="black" stroke="none" />

<rect x="130.0" y="83.5" width="10.0" height="10.0" fill="black" stroke="none" />

<rect x="131.42857142857142" y="84.92857142857143" width="1.4285714285714286" height="1.4285714285714286" fill="white" stroke="white" stroke-width="0.2" />

<rect x="131.42857142857142" y="86.35714285714286" width="1.4285714285714286" height="1.4285714285714286" fill="white" stroke="white" stroke-width="0.2" />

<rect x="131.42857142857142" y="87.78571428571429" width="1.4285714285714286" height="1.4285714285714286" fill="white" stroke="white" stroke-width="0.2" />

<rect x="132.85714285714286" y="89.21428571428571" width="1.4285714285714286" height="1.4285714285714286" fill="white" stroke="white" stroke-width="0.2" />

<rect x="132.85714285714286" y="90.64285714285714" width="1.4285714285714286" height="1.4285714285714286" fill="white" stroke="white" stroke-width="0.2" />

<rect x="137.14285714285714" y="89.21428571428571" width="1.4285714285714286" height="1.4285714285714286" fill="white" stroke="white" stroke-width="0.2" />

<rect x="137.14285714285714" y="90.64285714285714" width="1.4285714285714286" height="1.4285714285714286" fill="white" stroke="white" stroke-width="0.2" />

<rect x="145.0" y="78.5" width="20.0" height="20.0" fill="black" stroke="none" />

<rect x="170.0" y="83.5" width="10.0" height="10.0" fill="black" stroke="none" />

<rect x="171.42857142857142" y="84.92857142857143" width="1.4285714285714286" height="1.4285714285714286" fill="white" stroke="white" stroke-width="0.2" />

<rect x="171.42857142857142" y="86.35714285714286" width="1.4285714285714286" height="1.4285714285714286" fill="white" stroke="white" stroke-width="0.2" />

<rect x="171.42857142857142" y="87.78571428571429" width="1.4285714285714286" height="1.4285714285714286" fill="white" stroke="white" stroke-width="0.2" />

<rect x="172.85714285714286" y="89.21428571428571" width="1.4285714285714286" height="1.4285714285714286" fill="white" stroke="white" stroke-width="0.2" />

<rect x="172.85714285714286" y="90.64285714285714" width="1.4285714285714286" height="1.4285714285714286" fill="white" stroke="white" stroke-width="0.2" />

<rect x="174.28571428571428" y="90.64285714285714" width="1.4285714285714286" height="1.4285714285714286" fill="white" stroke="white" stroke-width="0.2" />

<rect x="175.71428571428572" y="90.64285714285714" width="1.4285714285714286" height="1.4285714285714286" fill="white" stroke="white" stroke-width="0.2" />

<rect x="177.14285714285714" y="89.21428571428571" width="1.4285714285714286" height="1.4285714285714286" fill="white" stroke="white" stroke-width="0.2" />

<rect x="30.0" y="103.5" width="10.0" height="10.0" fill="black" stroke="none" />

<rect x="31.428571428571427" y="104.92857142857143" width="1.4285714285714286" height="1.4285714285714286" fill="white" stroke="white" stroke-width="0.2" />

<rect x="31.428571428571427" y="106.35714285714286" width="1.4285714285714286" height="1.4285714285714286" fill="white" stroke="white" stroke-width="0.2" />

<rect x="31.428571428571427" y="107.78571428571429" width="1.4285714285714286" height="1.4285714285714286" fill="white" stroke="white" stroke-width="0.2" />

<rect x="31.428571428571427" y="110.64285714285714" width="1.4285714285714286" height="1.4285714285714286" fill="white" stroke="white" stroke-width="0.2" />

<rect x="32.857142857142854" y="109.21428571428571" width="1.4285714285714286" height="1.4285714285714286" fill="white" stroke="white" stroke-width="0.2" />

<rect x="34.285714285714285" y="109.21428571428571" width="1.4285714285714286" height="1.4285714285714286" fill="white" stroke="white" stroke-width="0.2" />

<rect x="35.714285714285715" y="109.21428571428571" width="1.4285714285714286" height="1.4285714285714286" fill="white" stroke="white" stroke-width="0.2" />

<rect x="45.0" y="98.5" width="20.0" height="20.0" fill="black" stroke="none" />

<rect x="70.0" y="103.5" width="10.0" height="10.0" fill="black" stroke="none" />

<rect x="71.42857142857143" y="104.92857142857143" width="1.4285714285714286" height="1.4285714285714286" fill="white" stroke="white" stroke-width="0.2" />

<rect x="71.42857142857143" y="106.35714285714286" width="1.4285714285714286" height="1.4285714285714286" fill="white" stroke="white" stroke-width="0.2" />

<rect x="71.42857142857143" y="107.78571428571429" width="1.4285714285714286" height="1.4285714285714286" fill="white" stroke="white" stroke-width="0.2" />

<rect x="71.42857142857143" y="110.64285714285714" width="1.4285714285714286" height="1.4285714285714286" fill="white" stroke="white" stroke-width="0.2" />

<rect x="72.85714285714286" y="109.21428571428571" width="1.4285714285714286" height="1.4285714285714286" fill="white" stroke="white" stroke-width="0.2" />

<rect x="74.28571428571429" y="109.21428571428571" width="1.4285714285714286" height="1.4285714285714286" fill="white" stroke="white" stroke-width="0.2" />

<rect x="74.28571428571429" y="110.64285714285714" width="1.4285714285714286" height="1.4285714285714286" fill="white" stroke="white" stroke-width="0.2" />

<rect x="75.71428571428571" y="109.21428571428571" width="1.4285714285714286" height="1.4285714285714286" fill="white" stroke="white" stroke-width="0.2" />

<rect x="75.71428571428571" y="110.64285714285714" width="1.4285714285714286" height="1.4285714285714286" fill="white" stroke="white" stroke-width="0.2" />

<rect x="77.14285714285714" y="110.64285714285714" width="1.4285714285714286" height="1.4285714285714286" fill="white" stroke="white" stroke-width="0.2" />

<rect x="85.0" y="98.5" width="20.0" height="20.0" fill="black" stroke="none" />

<rect x="110.0" y="103.5" width="10.0" height="10.0" fill="black" stroke="none" />

<rect x="111.42857142857143" y="104.92857142857143" width="1.4285714285714286" height="1.4285714285714286" fill="white" stroke="white" stroke-width="0.2" />

<rect x="111.42857142857143" y="106.35714285714286" width="1.4285714285714286" height="1.4285714285714286" fill="white" stroke="white" stroke-width="0.2" />

<rect x="111.42857142857143" y="107.78571428571429" width="1.4285714285714286" height="1.4285714285714286" fill="white" stroke="white" stroke-width="0.2" />

<rect x="112.85714285714286" y="109.21428571428571" width="1.4285714285714286" height="1.4285714285714286" fill="white" stroke="white" stroke-width="0.2" />

<rect x="112.85714285714286" y="110.64285714285714" width="1.4285714285714286" height="1.4285714285714286" fill="white" stroke="white" stroke-width="0.2" />

<rect x="114.28571428571429" y="109.21428571428571" width="1.4285714285714286" height="1.4285714285714286" fill="white" stroke="white" stroke-width="0.2" />

<rect x="115.71428571428571" y="109.21428571428571" width="1.4285714285714286" height="1.4285714285714286" fill="white" stroke="white" stroke-width="0.2" />

<rect x="117.14285714285714" y="110.64285714285714" width="1.4285714285714286" height="1.4285714285714286" fill="white" stroke="white" stroke-width="0.2" />

<rect x="125.0" y="98.5" width="20.0" height="20.0" fill="black" stroke="none" />

<rect x="150.0" y="103.5" width="10.0" height="10.0" fill="black" stroke="none" />

<rect x="151.42857142857142" y="104.92857142857143" width="1.4285714285714286" height="1.4285714285714286" fill="white" stroke="white" stroke-width="0.2" />

<rect x="151.42857142857142" y="106.35714285714286" width="1.4285714285714286" height="1.4285714285714286" fill="white" stroke="white" stroke-width="0.2" />

<rect x="151.42857142857142" y="107.78571428571429" width="1.4285714285714286" height="1.4285714285714286" fill="white" stroke="white" stroke-width="0.2" />

<rect x="152.85714285714286" y="109.21428571428571" width="1.4285714285714286" height="1.4285714285714286" fill="white" stroke="white" stroke-width="0.2" />

<rect x="152.85714285714286" y="110.64285714285714" width="1.4285714285714286" height="1.4285714285714286" fill="white" stroke="white" stroke-width="0.2" />

<rect x="154.28571428571428" y="109.21428571428571" width="1.4285714285714286" height="1.4285714285714286" fill="white" stroke="white" stroke-width="0.2" />

<rect x="154.28571428571428" y="110.64285714285714" width="1.4285714285714286" height="1.4285714285714286" fill="white" stroke="white" stroke-width="0.2" />

<rect x="155.71428571428572" y="109.21428571428571" width="1.4285714285714286" height="1.4285714285714286" fill="white" stroke="white" stroke-width="0.2" />

<rect x="155.71428571428572" y="110.64285714285714" width="1.4285714285714286" height="1.4285714285714286" fill="white" stroke="white" stroke-width="0.2" />

<rect x="165.0" y="98.5" width="20.0" height="20.0" fill="black" stroke="none" />

<rect x="25.0" y="118.5" width="20.0" height="20.0" fill="black" stroke="none" />

<rect x="50.0" y="123.5" width="10.0" height="10.0" fill="black" stroke="none" />

<rect x="51.42857142857143" y="124.92857142857143" width="1.4285714285714286" height="1.4285714285714286" fill="white" stroke="white" stroke-width="0.2" />

<rect x="51.42857142857143" y="126.35714285714286" width="1.4285714285714286" height="1.4285714285714286" fill="white" stroke="white" stroke-width="0.2" />

<rect x="51.42857142857143" y="127.78571428571429" width="1.4285714285714286" height="1.4285714285714286" fill="white" stroke="white" stroke-width="0.2" />

<rect x="51.42857142857143" y="129.21428571428572" width="1.4285714285714286" height="1.4285714285714286" fill="white" stroke="white" stroke-width="0.2" />

<rect x="51.42857142857143" y="130.64285714285714" width="1.4285714285714286" height="1.4285714285714286" fill="white" stroke="white" stroke-width="0.2" />

<rect x="54.285714285714285" y="127.78571428571429" width="1.4285714285714286" height="1.4285714285714286" fill="white" stroke="white" stroke-width="0.2" />

<rect x="55.714285714285715" y="127.78571428571429" width="1.4285714285714286" height="1.4285714285714286" fill="white" stroke="white" stroke-width="0.2" />

<rect x="57.142857142857146" y="127.78571428571429" width="1.4285714285714286" height="1.4285714285714286" fill="white" stroke="white" stroke-width="0.2" />

<rect x="65.0" y="118.5" width="20.0" height="20.0" fill="black" stroke="none" />

<rect x="90.0" y="123.5" width="10.0" height="10.0" fill="black" stroke="none" />

<rect x="91.42857142857143" y="124.92857142857143" width="1.4285714285714286" height="1.4285714285714286" fill="white" stroke="white" stroke-width="0.2" />

<rect x="91.42857142857143" y="126.35714285714286" width="1.4285714285714286" height="1.4285714285714286" fill="white" stroke="white" stroke-width="0.2" />

<rect x="91.42857142857143" y="127.78571428571429" width="1.4285714285714286" height="1.4285714285714286" fill="white" stroke="white" stroke-width="0.2" />

<rect x="91.42857142857143" y="129.21428571428572" width="1.4285714285714286" height="1.4285714285714286" fill="white" stroke="white" stroke-width="0.2" />

<rect x="91.42857142857143" y="130.64285714285714" width="1.4285714285714286" height="1.4285714285714286" fill="white" stroke="white" stroke-width="0.2" />

<rect x="94.28571428571429" y="127.78571428571429" width="1.4285714285714286" height="1.4285714285714286" fill="white" stroke="white" stroke-width="0.2" />

<rect x="94.28571428571429" y="130.64285714285714" width="1.4285714285714286" height="1.4285714285714286" fill="white" stroke="white" stroke-width="0.2" />

<rect x="95.71428571428571" y="127.78571428571429" width="1.4285714285714286" height="1.4285714285714286" fill="white" stroke="white" stroke-width="0.2" />

<rect x="95.71428571428571" y="130.64285714285714" width="1.4285714285714286" height="1.4285714285714286" fill="white" stroke="white" stroke-width="0.2" />

<rect x="97.14285714285714" y="127.78571428571429" width="1.4285714285714286" height="1.4285714285714286" fill="white" stroke="white" stroke-width="0.2" />

<rect x="97.14285714285714" y="130.64285714285714" width="1.4285714285714286" height="1.4285714285714286" fill="white" stroke="white" stroke-width="0.2" />

<rect x="105.0" y="118.5" width="20.0" height="20.0" fill="black" stroke="none" />

<rect x="130.0" y="123.5" width="10.0" height="10.0" fill="black" stroke="none" />

<rect x="131.42857142857142" y="124.92857142857143" width="1.4285714285714286" height="1.4285714285714286" fill="white" stroke="white" stroke-width="0.2" />

<rect x="131.42857142857142" y="126.35714285714286" width="1.4285714285714286" height="1.4285714285714286" fill="white" stroke="white" stroke-width="0.2" />

<rect x="131.42857142857142" y="127.78571428571429" width="1.4285714285714286" height="1.4285714285714286" fill="white" stroke="white" stroke-width="0.2" />

<rect x="131.42857142857142" y="129.21428571428572" width="1.4285714285714286" height="1.4285714285714286" fill="white" stroke="white" stroke-width="0.2" />

<rect x="132.85714285714286" y="130.64285714285714" width="1.4285714285714286" height="1.4285714285714286" fill="white" stroke="white" stroke-width="0.2" />

<rect x="134.28571428571428" y="127.78571428571429" width="1.4285714285714286" height="1.4285714285714286" fill="white" stroke="white" stroke-width="0.2" />

<rect x="135.71428571428572" y="127.78571428571429" width="1.4285714285714286" height="1.4285714285714286" fill="white" stroke="white" stroke-width="0.2" />

<rect x="137.14285714285714" y="127.78571428571429" width="1.4285714285714286" height="1.4285714285714286" fill="white" stroke="white" stroke-width="0.2" />

<rect x="137.14285714285714" y="130.64285714285714" width="1.4285714285714286" height="1.4285714285714286" fill="white" stroke="white" stroke-width="0.2" />

<rect x="145.0" y="118.5" width="20.0" height="20.0" fill="black" stroke="none" />

<rect x="170.0" y="123.5" width="10.0" height="10.0" fill="black" stroke="none" />

<rect x="171.42857142857142" y="124.92857142857143" width="1.4285714285714286" height="1.4285714285714286" fill="white" stroke="white" stroke-width="0.2" />

<rect x="171.42857142857142" y="126.35714285714286" width="1.4285714285714286" height="1.4285714285714286" fill="white" stroke="white" stroke-width="0.2" />

<rect x="171.42857142857142" y="127.78571428571429" width="1.4285714285714286" height="1.4285714285714286" fill="white" stroke="white" stroke-width="0.2" />

<rect x="171.42857142857142" y="129.21428571428572" width="1.4285714285714286" height="1.4285714285714286" fill="white" stroke="white" stroke-width="0.2" />

<rect x="172.85714285714286" y="130.64285714285714" width="1.4285714285714286" height="1.4285714285714286" fill="white" stroke="white" stroke-width="0.2" />

<rect x="174.28571428571428" y="127.78571428571429" width="1.4285714285714286" height="1.4285714285714286" fill="white" stroke="white" stroke-width="0.2" />

<rect x="174.28571428571428" y="130.64285714285714" width="1.4285714285714286" height="1.4285714285714286" fill="white" stroke="white" stroke-width="0.2" />

<rect x="175.71428571428572" y="127.78571428571429" width="1.4285714285714286" height="1.4285714285714286" fill="white" stroke="white" stroke-width="0.2" />

<rect x="175.71428571428572" y="130.64285714285714" width="1.4285714285714286" height="1.4285714285714286" fill="white" stroke="white" stroke-width="0.2" />

<rect x="177.14285714285714" y="127.78571428571429" width="1.4285714285714286" height="1.4285714285714286" fill="white" stroke="white" stroke-width="0.2" />

<rect x="30.0" y="143.5" width="10.0" height="10.0" fill="black" stroke="none" />

<rect x="31.428571428571427" y="144.92857142857142" width="1.4285714285714286" height="1.4285714285714286" fill="white" stroke="white" stroke-width="0.2" />

<rect x="31.428571428571427" y="146.35714285714286" width="1.4285714285714286" height="1.4285714285714286" fill="white" stroke="white" stroke-width="0.2" />

<rect x="31.428571428571427" y="147.78571428571428" width="1.4285714285714286" height="1.4285714285714286" fill="white" stroke="white" stroke-width="0.2" />

<rect x="31.428571428571427" y="149.21428571428572" width="1.4285714285714286" height="1.4285714285714286" fill="white" stroke="white" stroke-width="0.2" />

<rect x="31.428571428571427" y="150.64285714285714" width="1.4285714285714286" height="1.4285714285714286" fill="white" stroke="white" stroke-width="0.2" />

<rect x="34.285714285714285" y="147.78571428571428" width="1.4285714285714286" height="1.4285714285714286" fill="white" stroke="white" stroke-width="0.2" />

<rect x="34.285714285714285" y="149.21428571428572" width="1.4285714285714286" height="1.4285714285714286" fill="white" stroke="white" stroke-width="0.2" />

<rect x="35.714285714285715" y="147.78571428571428" width="1.4285714285714286" height="1.4285714285714286" fill="white" stroke="white" stroke-width="0.2" />

<rect x="35.714285714285715" y="149.21428571428572" width="1.4285714285714286" height="1.4285714285714286" fill="white" stroke="white" stroke-width="0.2" />

<rect x="37.142857142857146" y="147.78571428571428" width="1.4285714285714286" height="1.4285714285714286" fill="white" stroke="white" stroke-width="0.2" />

<rect x="37.142857142857146" y="149.21428571428572" width="1.4285714285714286" height="1.4285714285714286" fill="white" stroke="white" stroke-width="0.2" />

<rect x="45.0" y="138.5" width="20.0" height="20.0" fill="black" stroke="none" />

<rect x="70.0" y="143.5" width="10.0" height="10.0" fill="black" stroke="none" />

<rect x="71.42857142857143" y="144.92857142857142" width="1.4285714285714286" height="1.4285714285714286" fill="white" stroke="white" stroke-width="0.2" />

<rect x="71.42857142857143" y="146.35714285714286" width="1.4285714285714286" height="1.4285714285714286" fill="white" stroke="white" stroke-width="0.2" />

<rect x="71.42857142857143" y="147.78571428571428" width="1.4285714285714286" height="1.4285714285714286" fill="white" stroke="white" stroke-width="0.2" />

<rect x="71.42857142857143" y="149.21428571428572" width="1.4285714285714286" height="1.4285714285714286" fill="white" stroke="white" stroke-width="0.2" />

<rect x="71.42857142857143" y="150.64285714285714" width="1.4285714285714286" height="1.4285714285714286" fill="white" stroke="white" stroke-width="0.2" />

<rect x="74.28571428571429" y="147.78571428571428" width="1.4285714285714286" height="1.4285714285714286" fill="white" stroke="white" stroke-width="0.2" />

<rect x="74.28571428571429" y="149.21428571428572" width="1.4285714285714286" height="1.4285714285714286" fill="white" stroke="white" stroke-width="0.2" />

<rect x="74.28571428571429" y="150.64285714285714" width="1.4285714285714286" height="1.4285714285714286" fill="white" stroke="white" stroke-width="0.2" />

<rect x="75.71428571428571" y="147.78571428571428" width="1.4285714285714286" height="1.4285714285714286" fill="white" stroke="white" stroke-width="0.2" />

<rect x="75.71428571428571" y="149.21428571428572" width="1.4285714285714286" height="1.4285714285714286" fill="white" stroke="white" stroke-width="0.2" />

<rect x="75.71428571428571" y="150.64285714285714" width="1.4285714285714286" height="1.4285714285714286" fill="white" stroke="white" stroke-width="0.2" />

<rect x="77.14285714285714" y="147.78571428571428" width="1.4285714285714286" height="1.4285714285714286" fill="white" stroke="white" stroke-width="0.2" />

<rect x="77.14285714285714" y="149.21428571428572" width="1.4285714285714286" height="1.4285714285714286" fill="white" stroke="white" stroke-width="0.2" />

<rect x="77.14285714285714" y="150.64285714285714" width="1.4285714285714286" height="1.4285714285714286" fill="white" stroke="white" stroke-width="0.2" />

<rect x="85.0" y="138.5" width="20.0" height="20.0" fill="black" stroke="none" />

<rect x="110.0" y="143.5" width="10.0" height="10.0" fill="black" stroke="none" />

<rect x="111.42857142857143" y="144.92857142857142" width="1.4285714285714286" height="1.4285714285714286" fill="white" stroke="white" stroke-width="0.2" />

<rect x="111.42857142857143" y="146.35714285714286" width="1.4285714285714286" height="1.4285714285714286" fill="white" stroke="white" stroke-width="0.2" />

<rect x="111.42857142857143" y="147.78571428571428" width="1.4285714285714286" height="1.4285714285714286" fill="white" stroke="white" stroke-width="0.2" />

<rect x="111.42857142857143" y="149.21428571428572" width="1.4285714285714286" height="1.4285714285714286" fill="white" stroke="white" stroke-width="0.2" />

<rect x="112.85714285714286" y="150.64285714285714" width="1.4285714285714286" height="1.4285714285714286" fill="white" stroke="white" stroke-width="0.2" />

<rect x="114.28571428571429" y="147.78571428571428" width="1.4285714285714286" height="1.4285714285714286" fill="white" stroke="white" stroke-width="0.2" />

<rect x="114.28571428571429" y="149.21428571428572" width="1.4285714285714286" height="1.4285714285714286" fill="white" stroke="white" stroke-width="0.2" />

<rect x="115.71428571428571" y="147.78571428571428" width="1.4285714285714286" height="1.4285714285714286" fill="white" stroke="white" stroke-width="0.2" />

<rect x="115.71428571428571" y="149.21428571428572" width="1.4285714285714286" height="1.4285714285714286" fill="white" stroke="white" stroke-width="0.2" />

<rect x="117.14285714285714" y="147.78571428571428" width="1.4285714285714286" height="1.4285714285714286" fill="white" stroke="white" stroke-width="0.2" />

<rect x="117.14285714285714" y="149.21428571428572" width="1.4285714285714286" height="1.4285714285714286" fill="white" stroke="white" stroke-width="0.2" />

<rect x="117.14285714285714" y="150.64285714285714" width="1.4285714285714286" height="1.4285714285714286" fill="white" stroke="white" stroke-width="0.2" />

<rect x="125.0" y="138.5" width="20.0" height="20.0" fill="black" stroke="none" />

<rect x="150.0" y="143.5" width="10.0" height="10.0" fill="black" stroke="none" />

<rect x="151.42857142857142" y="144.92857142857142" width="1.4285714285714286" height="1.4285714285714286" fill="white" stroke="white" stroke-width="0.2" />

<rect x="151.42857142857142" y="146.35714285714286" width="1.4285714285714286" height="1.4285714285714286" fill="white" stroke="white" stroke-width="0.2" />

<rect x="151.42857142857142" y="147.78571428571428" width="1.4285714285714286" height="1.4285714285714286" fill="white" stroke="white" stroke-width="0.2" />

<rect x="151.42857142857142" y="149.21428571428572" width="1.4285714285714286" height="1.4285714285714286" fill="white" stroke="white" stroke-width="0.2" />

<rect x="152.85714285714286" y="150.64285714285714" width="1.4285714285714286" height="1.4285714285714286" fill="white" stroke="white" stroke-width="0.2" />

<rect x="154.28571428571428" y="147.78571428571428" width="1.4285714285714286" height="1.4285714285714286" fill="white" stroke="white" stroke-width="0.2" />

<rect x="154.28571428571428" y="149.21428571428572" width="1.4285714285714286" height="1.4285714285714286" fill="white" stroke="white" stroke-width="0.2" />

<rect x="154.28571428571428" y="150.64285714285714" width="1.4285714285714286" height="1.4285714285714286" fill="white" stroke="white" stroke-width="0.2" />

<rect x="155.71428571428572" y="147.78571428571428" width="1.4285714285714286" height="1.4285714285714286" fill="white" stroke="white" stroke-width="0.2" />

<rect x="155.71428571428572" y="149.21428571428572" width="1.4285714285714286" height="1.4285714285714286" fill="white" stroke="white" stroke-width="0.2" />

<rect x="155.71428571428572" y="150.64285714285714" width="1.4285714285714286" height="1.4285714285714286" fill="white" stroke="white" stroke-width="0.2" />

<rect x="157.14285714285714" y="147.78571428571428" width="1.4285714285714286" height="1.4285714285714286" fill="white" stroke="white" stroke-width="0.2" />

<rect x="157.14285714285714" y="149.21428571428572" width="1.4285714285714286" height="1.4285714285714286" fill="white" stroke="white" stroke-width="0.2" />

<rect x="165.0" y="138.5" width="20.0" height="20.0" fill="black" stroke="none" />

<rect x="25.0" y="158.5" width="20.0" height="20.0" fill="black" stroke="none" />

<rect x="50.0" y="163.5" width="10.0" height="10.0" fill="black" stroke="none" />

<rect x="51.42857142857143" y="164.92857142857142" width="1.4285714285714286" height="1.4285714285714286" fill="white" stroke="white" stroke-width="0.2" />

<rect x="51.42857142857143" y="166.35714285714286" width="1.4285714285714286" height="1.4285714285714286" fill="white" stroke="white" stroke-width="0.2" />

<rect x="51.42857142857143" y="167.78571428571428" width="1.4285714285714286" height="1.4285714285714286" fill="white" stroke="white" stroke-width="0.2" />

<rect x="51.42857142857143" y="170.64285714285714" width="1.4285714285714286" height="1.4285714285714286" fill="white" stroke="white" stroke-width="0.2" />

<rect x="52.857142857142854" y="169.21428571428572" width="1.4285714285714286" height="1.4285714285714286" fill="white" stroke="white" stroke-width="0.2" />

<rect x="54.285714285714285" y="167.78571428571428" width="1.4285714285714286" height="1.4285714285714286" fill="white" stroke="white" stroke-width="0.2" />

<rect x="55.714285714285715" y="167.78571428571428" width="1.4285714285714286" height="1.4285714285714286" fill="white" stroke="white" stroke-width="0.2" />

<rect x="57.142857142857146" y="167.78571428571428" width="1.4285714285714286" height="1.4285714285714286" fill="white" stroke="white" stroke-width="0.2" />

<rect x="57.142857142857146" y="169.21428571428572" width="1.4285714285714286" height="1.4285714285714286" fill="white" stroke="white" stroke-width="0.2" />

<rect x="65.0" y="158.5" width="20.0" height="20.0" fill="black" stroke="none" />

<rect x="90.0" y="163.5" width="10.0" height="10.0" fill="black" stroke="none" />

<rect x="91.42857142857143" y="164.92857142857142" width="1.4285714285714286" height="1.4285714285714286" fill="white" stroke="white" stroke-width="0.2" />

<rect x="91.42857142857143" y="166.35714285714286" width="1.4285714285714286" height="1.4285714285714286" fill="white" stroke="white" stroke-width="0.2" />

<rect x="91.42857142857143" y="167.78571428571428" width="1.4285714285714286" height="1.4285714285714286" fill="white" stroke="white" stroke-width="0.2" />

<rect x="91.42857142857143" y="170.64285714285714" width="1.4285714285714286" height="1.4285714285714286" fill="white" stroke="white" stroke-width="0.2" />

<rect x="92.85714285714286" y="169.21428571428572" width="1.4285714285714286" height="1.4285714285714286" fill="white" stroke="white" stroke-width="0.2" />

<rect x="94.28571428571429" y="167.78571428571428" width="1.4285714285714286" height="1.4285714285714286" fill="white" stroke="white" stroke-width="0.2" />

<rect x="94.28571428571429" y="170.64285714285714" width="1.4285714285714286" height="1.4285714285714286" fill="white" stroke="white" stroke-width="0.2" />

<rect x="95.71428571428571" y="167.78571428571428" width="1.4285714285714286" height="1.4285714285714286" fill="white" stroke="white" stroke-width="0.2" />

<rect x="95.71428571428571" y="170.64285714285714" width="1.4285714285714286" height="1.4285714285714286" fill="white" stroke="white" stroke-width="0.2" />

<rect x="97.14285714285714" y="167.78571428571428" width="1.4285714285714286" height="1.4285714285714286" fill="white" stroke="white" stroke-width="0.2" />

<rect x="97.14285714285714" y="169.21428571428572" width="1.4285714285714286" height="1.4285714285714286" fill="white" stroke="white" stroke-width="0.2" />

<rect x="97.14285714285714" y="170.64285714285714" width="1.4285714285714286" height="1.4285714285714286" fill="white" stroke="white" stroke-width="0.2" />

<rect x="105.0" y="158.5" width="20.0" height="20.0" fill="black" stroke="none" />

<rect x="130.0" y="163.5" width="10.0" height="10.0" fill="black" stroke="none" />

<rect x="131.42857142857142" y="164.92857142857142" width="1.4285714285714286" height="1.4285714285714286" fill="white" stroke="white" stroke-width="0.2" />

<rect x="131.42857142857142" y="166.35714285714286" width="1.4285714285714286" height="1.4285714285714286" fill="white" stroke="white" stroke-width="0.2" />

<rect x="131.42857142857142" y="167.78571428571428" width="1.4285714285714286" height="1.4285714285714286" fill="white" stroke="white" stroke-width="0.2" />

<rect x="132.85714285714286" y="169.21428571428572" width="1.4285714285714286" height="1.4285714285714286" fill="white" stroke="white" stroke-width="0.2" />

<rect x="132.85714285714286" y="170.64285714285714" width="1.4285714285714286" height="1.4285714285714286" fill="white" stroke="white" stroke-width="0.2" />

<rect x="134.28571428571428" y="167.78571428571428" width="1.4285714285714286" height="1.4285714285714286" fill="white" stroke="white" stroke-width="0.2" />

<rect x="135.71428571428572" y="167.78571428571428" width="1.4285714285714286" height="1.4285714285714286" fill="white" stroke="white" stroke-width="0.2" />

<rect x="137.14285714285714" y="167.78571428571428" width="1.4285714285714286" height="1.4285714285714286" fill="white" stroke="white" stroke-width="0.2" />

<rect x="137.14285714285714" y="169.21428571428572" width="1.4285714285714286" height="1.4285714285714286" fill="white" stroke="white" stroke-width="0.2" />

<rect x="137.14285714285714" y="170.64285714285714" width="1.4285714285714286" height="1.4285714285714286" fill="white" stroke="white" stroke-width="0.2" />

<rect x="145.0" y="158.5" width="20.0" height="20.0" fill="black" stroke="none" />

<rect x="170.0" y="163.5" width="10.0" height="10.0" fill="black" stroke="none" />

<rect x="171.42857142857142" y="164.92857142857142" width="1.4285714285714286" height="1.4285714285714286" fill="white" stroke="white" stroke-width="0.2" />

<rect x="171.42857142857142" y="166.35714285714286" width="1.4285714285714286" height="1.4285714285714286" fill="white" stroke="white" stroke-width="0.2" />

<rect x="171.42857142857142" y="167.78571428571428" width="1.4285714285714286" height="1.4285714285714286" fill="white" stroke="white" stroke-width="0.2" />

<rect x="172.85714285714286" y="169.21428571428572" width="1.4285714285714286" height="1.4285714285714286" fill="white" stroke="white" stroke-width="0.2" />

<rect x="172.85714285714286" y="170.64285714285714" width="1.4285714285714286" height="1.4285714285714286" fill="white" stroke="white" stroke-width="0.2" />

<rect x="174.28571428571428" y="167.78571428571428" width="1.4285714285714286" height="1.4285714285714286" fill="white" stroke="white" stroke-width="0.2" />

<rect x="174.28571428571428" y="170.64285714285714" width="1.4285714285714286" height="1.4285714285714286" fill="white" stroke="white" stroke-width="0.2" />

<rect x="175.71428571428572" y="167.78571428571428" width="1.4285714285714286" height="1.4285714285714286" fill="white" stroke="white" stroke-width="0.2" />

<rect x="175.71428571428572" y="170.64285714285714" width="1.4285714285714286" height="1.4285714285714286" fill="white" stroke="white" stroke-width="0.2" />

<rect x="177.14285714285714" y="167.78571428571428" width="1.4285714285714286" height="1.4285714285714286" fill="white" stroke="white" stroke-width="0.2" />

<rect x="177.14285714285714" y="169.21428571428572" width="1.4285714285714286" height="1.4285714285714286" fill="white" stroke="white" stroke-width="0.2" />

<rect x="30.0" y="183.5" width="10.0" height="10.0" fill="black" stroke="none" />

<rect x="31.428571428571427" y="184.92857142857142" width="1.4285714285714286" height="1.4285714285714286" fill="white" stroke="white" stroke-width="0.2" />

<rect x="31.428571428571427" y="186.35714285714286" width="1.4285714285714286" height="1.4285714285714286" fill="white" stroke="white" stroke-width="0.2" />

<rect x="31.428571428571427" y="187.78571428571428" width="1.4285714285714286" height="1.4285714285714286" fill="white" stroke="white" stroke-width="0.2" />

<rect x="31.428571428571427" y="190.64285714285714" width="1.4285714285714286" height="1.4285714285714286" fill="white" stroke="white" stroke-width="0.2" />

<rect x="32.857142857142854" y="189.21428571428572" width="1.4285714285714286" height="1.4285714285714286" fill="white" stroke="white" stroke-width="0.2" />

<rect x="34.285714285714285" y="187.78571428571428" width="1.4285714285714286" height="1.4285714285714286" fill="white" stroke="white" stroke-width="0.2" />

<rect x="34.285714285714285" y="189.21428571428572" width="1.4285714285714286" height="1.4285714285714286" fill="white" stroke="white" stroke-width="0.2" />

<rect x="35.714285714285715" y="187.78571428571428" width="1.4285714285714286" height="1.4285714285714286" fill="white" stroke="white" stroke-width="0.2" />

<rect x="35.714285714285715" y="189.21428571428572" width="1.4285714285714286" height="1.4285714285714286" fill="white" stroke="white" stroke-width="0.2" />

<rect x="37.142857142857146" y="187.78571428571428" width="1.4285714285714286" height="1.4285714285714286" fill="white" stroke="white" stroke-width="0.2" />

<rect x="45.0" y="178.5" width="20.0" height="20.0" fill="black" stroke="none" />

<rect x="70.0" y="183.5" width="10.0" height="10.0" fill="black" stroke="none" />

<rect x="71.42857142857143" y="184.92857142857142" width="1.4285714285714286" height="1.4285714285714286" fill="white" stroke="white" stroke-width="0.2" />

<rect x="71.42857142857143" y="186.35714285714286" width="1.4285714285714286" height="1.4285714285714286" fill="white" stroke="white" stroke-width="0.2" />

<rect x="71.42857142857143" y="187.78571428571428" width="1.4285714285714286" height="1.4285714285714286" fill="white" stroke="white" stroke-width="0.2" />

<rect x="71.42857142857143" y="190.64285714285714" width="1.4285714285714286" height="1.4285714285714286" fill="white" stroke="white" stroke-width="0.2" />

<rect x="72.85714285714286" y="189.21428571428572" width="1.4285714285714286" height="1.4285714285714286" fill="white" stroke="white" stroke-width="0.2" />

<rect x="74.28571428571429" y="187.78571428571428" width="1.4285714285714286" height="1.4285714285714286" fill="white" stroke="white" stroke-width="0.2" />

<rect x="74.28571428571429" y="189.21428571428572" width="1.4285714285714286" height="1.4285714285714286" fill="white" stroke="white" stroke-width="0.2" />

<rect x="74.28571428571429" y="190.64285714285714" width="1.4285714285714286" height="1.4285714285714286" fill="white" stroke="white" stroke-width="0.2" />

<rect x="75.71428571428571" y="187.78571428571428" width="1.4285714285714286" height="1.4285714285714286" fill="white" stroke="white" stroke-width="0.2" />

<rect x="75.71428571428571" y="189.21428571428572" width="1.4285714285714286" height="1.4285714285714286" fill="white" stroke="white" stroke-width="0.2" />

<rect x="75.71428571428571" y="190.64285714285714" width="1.4285714285714286" height="1.4285714285714286" fill="white" stroke="white" stroke-width="0.2" />

<rect x="77.14285714285714" y="187.78571428571428" width="1.4285714285714286" height="1.4285714285714286" fill="white" stroke="white" stroke-width="0.2" />

<rect x="77.14285714285714" y="190.64285714285714" width="1.4285714285714286" height="1.4285714285714286" fill="white" stroke="white" stroke-width="0.2" />

<rect x="85.0" y="178.5" width="20.0" height="20.0" fill="black" stroke="none" />

<rect x="110.0" y="183.5" width="10.0" height="10.0" fill="black" stroke="none" />

<rect x="111.42857142857143" y="184.92857142857142" width="1.4285714285714286" height="1.4285714285714286" fill="white" stroke="white" stroke-width="0.2" />

<rect x="111.42857142857143" y="186.35714285714286" width="1.4285714285714286" height="1.4285714285714286" fill="white" stroke="white" stroke-width="0.2" />

<rect x="111.42857142857143" y="187.78571428571428" width="1.4285714285714286" height="1.4285714285714286" fill="white" stroke="white" stroke-width="0.2" />

<rect x="112.85714285714286" y="189.21428571428572" width="1.4285714285714286" height="1.4285714285714286" fill="white" stroke="white" stroke-width="0.2" />

<rect x="112.85714285714286" y="190.64285714285714" width="1.4285714285714286" height="1.4285714285714286" fill="white" stroke="white" stroke-width="0.2" />

<rect x="114.28571428571429" y="187.78571428571428" width="1.4285714285714286" height="1.4285714285714286" fill="white" stroke="white" stroke-width="0.2" />

<rect x="114.28571428571429" y="189.21428571428572" width="1.4285714285714286" height="1.4285714285714286" fill="white" stroke="white" stroke-width="0.2" />

<rect x="115.71428571428571" y="187.78571428571428" width="1.4285714285714286" height="1.4285714285714286" fill="white" stroke="white" stroke-width="0.2" />

<rect x="115.71428571428571" y="189.21428571428572" width="1.4285714285714286" height="1.4285714285714286" fill="white" stroke="white" stroke-width="0.2" />

<rect x="117.14285714285714" y="187.78571428571428" width="1.4285714285714286" height="1.4285714285714286" fill="white" stroke="white" stroke-width="0.2" />

<rect x="117.14285714285714" y="190.64285714285714" width="1.4285714285714286" height="1.4285714285714286" fill="white" stroke="white" stroke-width="0.2" />

<rect x="125.0" y="178.5" width="20.0" height="20.0" fill="black" stroke="none" />

<rect x="150.0" y="183.5" width="10.0" height="10.0" fill="black" stroke="none" />

<rect x="151.42857142857142" y="184.92857142857142" width="1.4285714285714286" height="1.4285714285714286" fill="white" stroke="white" stroke-width="0.2" />

<rect x="151.42857142857142" y="186.35714285714286" width="1.4285714285714286" height="1.4285714285714286" fill="white" stroke="white" stroke-width="0.2" />

<rect x="151.42857142857142" y="187.78571428571428" width="1.4285714285714286" height="1.4285714285714286" fill="white" stroke="white" stroke-width="0.2" />

<rect x="152.85714285714286" y="189.21428571428572" width="1.4285714285714286" height="1.4285714285714286" fill="white" stroke="white" stroke-width="0.2" />

<rect x="152.85714285714286" y="190.64285714285714" width="1.4285714285714286" height="1.4285714285714286" fill="white" stroke="white" stroke-width="0.2" />

<rect x="154.28571428571428" y="187.78571428571428" width="1.4285714285714286" height="1.4285714285714286" fill="white" stroke="white" stroke-width="0.2" />

<rect x="154.28571428571428" y="189.21428571428572" width="1.4285714285714286" height="1.4285714285714286" fill="white" stroke="white" stroke-width="0.2" />

<rect x="154.28571428571428" y="190.64285714285714" width="1.4285714285714286" height="1.4285714285714286" fill="white" stroke="white" stroke-width="0.2" />

<rect x="155.71428571428572" y="187.78571428571428" width="1.4285714285714286" height="1.4285714285714286" fill="white" stroke="white" stroke-width="0.2" />

<rect x="155.71428571428572" y="189.21428571428572" width="1.4285714285714286" height="1.4285714285714286" fill="white" stroke="white" stroke-width="0.2" />

<rect x="155.71428571428572" y="190.64285714285714" width="1.4285714285714286" height="1.4285714285714286" fill="white" stroke="white" stroke-width="0.2" />

<rect x="157.14285714285714" y="187.78571428571428" width="1.4285714285714286" height="1.4285714285714286" fill="white" stroke="white" stroke-width="0.2" />

<rect x="165.0" y="178.5" width="20.0" height="20.0" fill="black" stroke="none" />

<rect x="25.0" y="198.5" width="20.0" height="20.0" fill="black" stroke="none" />

<rect x="50.0" y="203.5" width="10.0" height="10.0" fill="black" stroke="none" />

<rect x="51.42857142857143" y="204.92857142857142" width="1.4285714285714286" height="1.4285714285714286" fill="white" stroke="white" stroke-width="0.2" />

<rect x="51.42857142857143" y="206.35714285714286" width="1.4285714285714286" height="1.4285714285714286" fill="white" stroke="white" stroke-width="0.2" />

<rect x="51.42857142857143" y="209.21428571428572" width="1.4285714285714286" height="1.4285714285714286" fill="white" stroke="white" stroke-width="0.2" />

<rect x="51.42857142857143" y="210.64285714285714" width="1.4285714285714286" height="1.4285714285714286" fill="white" stroke="white" stroke-width="0.2" />

<rect x="52.857142857142854" y="207.78571428571428" width="1.4285714285714286" height="1.4285714285714286" fill="white" stroke="white" stroke-width="0.2" />

<rect x="57.142857142857146" y="207.78571428571428" width="1.4285714285714286" height="1.4285714285714286" fill="white" stroke="white" stroke-width="0.2" />

<rect x="65.0" y="198.5" width="20.0" height="20.0" fill="black" stroke="none" />

<rect x="90.0" y="203.5" width="10.0" height="10.0" fill="black" stroke="none" />

<rect x="91.42857142857143" y="204.92857142857142" width="1.4285714285714286" height="1.4285714285714286" fill="white" stroke="white" stroke-width="0.2" />

<rect x="91.42857142857143" y="206.35714285714286" width="1.4285714285714286" height="1.4285714285714286" fill="white" stroke="white" stroke-width="0.2" />

<rect x="91.42857142857143" y="209.21428571428572" width="1.4285714285714286" height="1.4285714285714286" fill="white" stroke="white" stroke-width="0.2" />

<rect x="91.42857142857143" y="210.64285714285714" width="1.4285714285714286" height="1.4285714285714286" fill="white" stroke="white" stroke-width="0.2" />

<rect x="92.85714285714286" y="207.78571428571428" width="1.4285714285714286" height="1.4285714285714286" fill="white" stroke="white" stroke-width="0.2" />

<rect x="94.28571428571429" y="210.64285714285714" width="1.4285714285714286" height="1.4285714285714286" fill="white" stroke="white" stroke-width="0.2" />

<rect x="95.71428571428571" y="210.64285714285714" width="1.4285714285714286" height="1.4285714285714286" fill="white" stroke="white" stroke-width="0.2" />

<rect x="97.14285714285714" y="207.78571428571428" width="1.4285714285714286" height="1.4285714285714286" fill="white" stroke="white" stroke-width="0.2" />

<rect x="97.14285714285714" y="210.64285714285714" width="1.4285714285714286" height="1.4285714285714286" fill="white" stroke="white" stroke-width="0.2" />

<rect x="105.0" y="198.5" width="20.0" height="20.0" fill="black" stroke="none" />

<rect x="130.0" y="203.5" width="10.0" height="10.0" fill="black" stroke="none" />

<rect x="131.42857142857142" y="204.92857142857142" width="1.4285714285714286" height="1.4285714285714286" fill="white" stroke="white" stroke-width="0.2" />

<rect x="131.42857142857142" y="206.35714285714286" width="1.4285714285714286" height="1.4285714285714286" fill="white" stroke="white" stroke-width="0.2" />

<rect x="131.42857142857142" y="209.21428571428572" width="1.4285714285714286" height="1.4285714285714286" fill="white" stroke="white" stroke-width="0.2" />

<rect x="132.85714285714286" y="207.78571428571428" width="1.4285714285714286" height="1.4285714285714286" fill="white" stroke="white" stroke-width="0.2" />

<rect x="132.85714285714286" y="210.64285714285714" width="1.4285714285714286" height="1.4285714285714286" fill="white" stroke="white" stroke-width="0.2" />

<rect x="137.14285714285714" y="207.78571428571428" width="1.4285714285714286" height="1.4285714285714286" fill="white" stroke="white" stroke-width="0.2" />

<rect x="137.14285714285714" y="210.64285714285714" width="1.4285714285714286" height="1.4285714285714286" fill="white" stroke="white" stroke-width="0.2" />

<rect x="145.0" y="198.5" width="20.0" height="20.0" fill="black" stroke="none" />

<rect x="170.0" y="203.5" width="10.0" height="10.0" fill="black" stroke="none" />

<rect x="171.42857142857142" y="204.92857142857142" width="1.4285714285714286" height="1.4285714285714286" fill="white" stroke="white" stroke-width="0.2" />

<rect x="171.42857142857142" y="206.35714285714286" width="1.4285714285714286" height="1.4285714285714286" fill="white" stroke="white" stroke-width="0.2" />

<rect x="171.42857142857142" y="209.21428571428572" width="1.4285714285714286" height="1.4285714285714286" fill="white" stroke="white" stroke-width="0.2" />

<rect x="172.85714285714286" y="207.78571428571428" width="1.4285714285714286" height="1.4285714285714286" fill="white" stroke="white" stroke-width="0.2" />

<rect x="172.85714285714286" y="210.64285714285714" width="1.4285714285714286" height="1.4285714285714286" fill="white" stroke="white" stroke-width="0.2" />

<rect x="174.28571428571428" y="210.64285714285714" width="1.4285714285714286" height="1.4285714285714286" fill="white" stroke="white" stroke-width="0.2" />

<rect x="175.71428571428572" y="210.64285714285714" width="1.4285714285714286" height="1.4285714285714286" fill="white" stroke="white" stroke-width="0.2" />

<rect x="177.14285714285714" y="207.78571428571428" width="1.4285714285714286" height="1.4285714285714286" fill="white" stroke="white" stroke-width="0.2" />

<rect x="30.0" y="223.5" width="10.0" height="10.0" fill="black" stroke="none" />

<rect x="31.428571428571427" y="224.92857142857142" width="1.4285714285714286" height="1.4285714285714286" fill="white" stroke="white" stroke-width="0.2" />

<rect x="31.428571428571427" y="226.35714285714286" width="1.4285714285714286" height="1.4285714285714286" fill="white" stroke="white" stroke-width="0.2" />

<rect x="31.428571428571427" y="229.21428571428572" width="1.4285714285714286" height="1.4285714285714286" fill="white" stroke="white" stroke-width="0.2" />

<rect x="31.428571428571427" y="230.64285714285714" width="1.4285714285714286" height="1.4285714285714286" fill="white" stroke="white" stroke-width="0.2" />

<rect x="32.857142857142854" y="227.78571428571428" width="1.4285714285714286" height="1.4285714285714286" fill="white" stroke="white" stroke-width="0.2" />

<rect x="34.285714285714285" y="229.21428571428572" width="1.4285714285714286" height="1.4285714285714286" fill="white" stroke="white" stroke-width="0.2" />

<rect x="35.714285714285715" y="229.21428571428572" width="1.4285714285714286" height="1.4285714285714286" fill="white" stroke="white" stroke-width="0.2" />

<rect x="37.142857142857146" y="227.78571428571428" width="1.4285714285714286" height="1.4285714285714286" fill="white" stroke="white" stroke-width="0.2" />

<rect x="37.142857142857146" y="229.21428571428572" width="1.4285714285714286" height="1.4285714285714286" fill="white" stroke="white" stroke-width="0.2" />

<rect x="45.0" y="218.5" width="20.0" height="20.0" fill="black" stroke="none" />

<rect x="70.0" y="223.5" width="10.0" height="10.0" fill="black" stroke="none" />

<rect x="71.42857142857143" y="224.92857142857142" width="1.4285714285714286" height="1.4285714285714286" fill="white" stroke="white" stroke-width="0.2" />

<rect x="71.42857142857143" y="226.35714285714286" width="1.4285714285714286" height="1.4285714285714286" fill="white" stroke="white" stroke-width="0.2" />

<rect x="71.42857142857143" y="229.21428571428572" width="1.4285714285714286" height="1.4285714285714286" fill="white" stroke="white" stroke-width="0.2" />

<rect x="71.42857142857143" y="230.64285714285714" width="1.4285714285714286" height="1.4285714285714286" fill="white" stroke="white" stroke-width="0.2" />

<rect x="72.85714285714286" y="227.78571428571428" width="1.4285714285714286" height="1.4285714285714286" fill="white" stroke="white" stroke-width="0.2" />

<rect x="74.28571428571429" y="229.21428571428572" width="1.4285714285714286" height="1.4285714285714286" fill="white" stroke="white" stroke-width="0.2" />

<rect x="74.28571428571429" y="230.64285714285714" width="1.4285714285714286" height="1.4285714285714286" fill="white" stroke="white" stroke-width="0.2" />

<rect x="75.71428571428571" y="229.21428571428572" width="1.4285714285714286" height="1.4285714285714286" fill="white" stroke="white" stroke-width="0.2" />

<rect x="75.71428571428571" y="230.64285714285714" width="1.4285714285714286" height="1.4285714285714286" fill="white" stroke="white" stroke-width="0.2" />

<rect x="77.14285714285714" y="227.78571428571428" width="1.4285714285714286" height="1.4285714285714286" fill="white" stroke="white" stroke-width="0.2" />

<rect x="77.14285714285714" y="229.21428571428572" width="1.4285714285714286" height="1.4285714285714286" fill="white" stroke="white" stroke-width="0.2" />

<rect x="77.14285714285714" y="230.64285714285714" width="1.4285714285714286" height="1.4285714285714286" fill="white" stroke="white" stroke-width="0.2" />

<rect x="85.0" y="218.5" width="20.0" height="20.0" fill="black" stroke="none" />

<rect x="110.0" y="223.5" width="10.0" height="10.0" fill="black" stroke="none" />

<rect x="111.42857142857143" y="224.92857142857142" width="1.4285714285714286" height="1.4285714285714286" fill="white" stroke="white" stroke-width="0.2" />

<rect x="111.42857142857143" y="226.35714285714286" width="1.4285714285714286" height="1.4285714285714286" fill="white" stroke="white" stroke-width="0.2" />

<rect x="111.42857142857143" y="229.21428571428572" width="1.4285714285714286" height="1.4285714285714286" fill="white" stroke="white" stroke-width="0.2" />

<rect x="112.85714285714286" y="227.78571428571428" width="1.4285714285714286" height="1.4285714285714286" fill="white" stroke="white" stroke-width="0.2" />

<rect x="112.85714285714286" y="230.64285714285714" width="1.4285714285714286" height="1.4285714285714286" fill="white" stroke="white" stroke-width="0.2" />

<rect x="114.28571428571429" y="229.21428571428572" width="1.4285714285714286" height="1.4285714285714286" fill="white" stroke="white" stroke-width="0.2" />

<rect x="115.71428571428571" y="229.21428571428572" width="1.4285714285714286" height="1.4285714285714286" fill="white" stroke="white" stroke-width="0.2" />

<rect x="117.14285714285714" y="227.78571428571428" width="1.4285714285714286" height="1.4285714285714286" fill="white" stroke="white" stroke-width="0.2" />

<rect x="117.14285714285714" y="229.21428571428572" width="1.4285714285714286" height="1.4285714285714286" fill="white" stroke="white" stroke-width="0.2" />

<rect x="117.14285714285714" y="230.64285714285714" width="1.4285714285714286" height="1.4285714285714286" fill="white" stroke="white" stroke-width="0.2" />

<rect x="125.0" y="218.5" width="20.0" height="20.0" fill="black" stroke="none" />

<rect x="150.0" y="223.5" width="10.0" height="10.0" fill="black" stroke="none" />

<rect x="151.42857142857142" y="224.92857142857142" width="1.4285714285714286" height="1.4285714285714286" fill="white" stroke="white" stroke-width="0.2" />

<rect x="151.42857142857142" y="226.35714285714286" width="1.4285714285714286" height="1.4285714285714286" fill="white" stroke="white" stroke-width="0.2" />

<rect x="151.42857142857142" y="229.21428571428572" width="1.4285714285714286" height="1.4285714285714286" fill="white" stroke="white" stroke-width="0.2" />

<rect x="152.85714285714286" y="227.78571428571428" width="1.4285714285714286" height="1.4285714285714286" fill="white" stroke="white" stroke-width="0.2" />

<rect x="152.85714285714286" y="230.64285714285714" width="1.4285714285714286" height="1.4285714285714286" fill="white" stroke="white" stroke-width="0.2" />

<rect x="154.28571428571428" y="229.21428571428572" width="1.4285714285714286" height="1.4285714285714286" fill="white" stroke="white" stroke-width="0.2" />

<rect x="154.28571428571428" y="230.64285714285714" width="1.4285714285714286" height="1.4285714285714286" fill="white" stroke="white" stroke-width="0.2" />

<rect x="155.71428571428572" y="229.21428571428572" width="1.4285714285714286" height="1.4285714285714286" fill="white" stroke="white" stroke-width="0.2" />

<rect x="155.71428571428572" y="230.64285714285714" width="1.4285714285714286" height="1.4285714285714286" fill="white" stroke="white" stroke-width="0.2" />

<rect x="157.14285714285714" y="227.78571428571428" width="1.4285714285714286" height="1.4285714285714286" fill="white" stroke="white" stroke-width="0.2" />

<rect x="157.14285714285714" y="229.21428571428572" width="1.4285714285714286" height="1.4285714285714286" fill="white" stroke="white" stroke-width="0.2" />

<rect x="165.0" y="218.5" width="20.0" height="20.0" fill="black" stroke="none" />

<rect x="25.0" y="238.5" width="20.0" height="20.0" fill="black" stroke="none" />

<rect x="50.0" y="243.5" width="10.0" height="10.0" fill="black" stroke="none" />

<rect x="51.42857142857143" y="244.92857142857142" width="1.4285714285714286" height="1.4285714285714286" fill="white" stroke="white" stroke-width="0.2" />

<rect x="51.42857142857143" y="246.35714285714286" width="1.4285714285714286" height="1.4285714285714286" fill="white" stroke="white" stroke-width="0.2" />

<rect x="51.42857142857143" y="250.64285714285714" width="1.4285714285714286" height="1.4285714285714286" fill="white" stroke="white" stroke-width="0.2" />

<rect x="52.857142857142854" y="247.78571428571428" width="1.4285714285714286" height="1.4285714285714286" fill="white" stroke="white" stroke-width="0.2" />

<rect x="52.857142857142854" y="249.21428571428572" width="1.4285714285714286" height="1.4285714285714286" fill="white" stroke="white" stroke-width="0.2" />

<rect x="57.142857142857146" y="247.78571428571428" width="1.4285714285714286" height="1.4285714285714286" fill="white" stroke="white" stroke-width="0.2" />

<rect x="57.142857142857146" y="249.21428571428572" width="1.4285714285714286" height="1.4285714285714286" fill="white" stroke="white" stroke-width="0.2" />

<rect x="65.0" y="238.5" width="20.0" height="20.0" fill="black" stroke="none" />

<rect x="90.0" y="243.5" width="10.0" height="10.0" fill="black" stroke="none" />

<rect x="91.42857142857143" y="244.92857142857142" width="1.4285714285714286" height="1.4285714285714286" fill="white" stroke="white" stroke-width="0.2" />

<rect x="91.42857142857143" y="246.35714285714286" width="1.4285714285714286" height="1.4285714285714286" fill="white" stroke="white" stroke-width="0.2" />

<rect x="91.42857142857143" y="250.64285714285714" width="1.4285714285714286" height="1.4285714285714286" fill="white" stroke="white" stroke-width="0.2" />

<rect x="92.85714285714286" y="247.78571428571428" width="1.4285714285714286" height="1.4285714285714286" fill="white" stroke="white" stroke-width="0.2" />

<rect x="92.85714285714286" y="249.21428571428572" width="1.4285714285714286" height="1.4285714285714286" fill="white" stroke="white" stroke-width="0.2" />

<rect x="94.28571428571429" y="250.64285714285714" width="1.4285714285714286" height="1.4285714285714286" fill="white" stroke="white" stroke-width="0.2" />

<rect x="95.71428571428571" y="250.64285714285714" width="1.4285714285714286" height="1.4285714285714286" fill="white" stroke="white" stroke-width="0.2" />

<rect x="97.14285714285714" y="247.78571428571428" width="1.4285714285714286" height="1.4285714285714286" fill="white" stroke="white" stroke-width="0.2" />

<rect x="97.14285714285714" y="249.21428571428572" width="1.4285714285714286" height="1.4285714285714286" fill="white" stroke="white" stroke-width="0.2" />

<rect x="97.14285714285714" y="250.64285714285714" width="1.4285714285714286" height="1.4285714285714286" fill="white" stroke="white" stroke-width="0.2" />

<rect x="105.0" y="238.5" width="20.0" height="20.0" fill="black" stroke="none" />

<rect x="130.0" y="243.5" width="10.0" height="10.0" fill="black" stroke="none" />

<rect x="131.42857142857142" y="244.92857142857142" width="1.4285714285714286" height="1.4285714285714286" fill="white" stroke="white" stroke-width="0.2" />

<rect x="131.42857142857142" y="246.35714285714286" width="1.4285714285714286" height="1.4285714285714286" fill="white" stroke="white" stroke-width="0.2" />

<rect x="132.85714285714286" y="247.78571428571428" width="1.4285714285714286" height="1.4285714285714286" fill="white" stroke="white" stroke-width="0.2" />

<rect x="132.85714285714286" y="249.21428571428572" width="1.4285714285714286" height="1.4285714285714286" fill="white" stroke="white" stroke-width="0.2" />

<rect x="132.85714285714286" y="250.64285714285714" width="1.4285714285714286" height="1.4285714285714286" fill="white" stroke="white" stroke-width="0.2" />

<rect x="137.14285714285714" y="247.78571428571428" width="1.4285714285714286" height="1.4285714285714286" fill="white" stroke="white" stroke-width="0.2" />

<rect x="137.14285714285714" y="249.21428571428572" width="1.4285714285714286" height="1.4285714285714286" fill="white" stroke="white" stroke-width="0.2" />

<rect x="137.14285714285714" y="250.64285714285714" width="1.4285714285714286" height="1.4285714285714286" fill="white" stroke="white" stroke-width="0.2" />

<rect x="145.0" y="238.5" width="20.0" height="20.0" fill="black" stroke="none" />

<rect x="170.0" y="243.5" width="10.0" height="10.0" fill="black" stroke="none" />

<rect x="171.42857142857142" y="244.92857142857142" width="1.4285714285714286" height="1.4285714285714286" fill="white" stroke="white" stroke-width="0.2" />

<rect x="171.42857142857142" y="246.35714285714286" width="1.4285714285714286" height="1.4285714285714286" fill="white" stroke="white" stroke-width="0.2" />

<rect x="172.85714285714286" y="247.78571428571428" width="1.4285714285714286" height="1.4285714285714286" fill="white" stroke="white" stroke-width="0.2" />

<rect x="172.85714285714286" y="249.21428571428572" width="1.4285714285714286" height="1.4285714285714286" fill="white" stroke="white" stroke-width="0.2" />

<rect x="172.85714285714286" y="250.64285714285714" width="1.4285714285714286" height="1.4285714285714286" fill="white" stroke="white" stroke-width="0.2" />

<rect x="174.28571428571428" y="250.64285714285714" width="1.4285714285714286" height="1.4285714285714286" fill="white" stroke="white" stroke-width="0.2" />

<rect x="175.71428571428572" y="250.64285714285714" width="1.4285714285714286" height="1.4285714285714286" fill="white" stroke="white" stroke-width="0.2" />

<rect x="177.14285714285714" y="247.78571428571428" width="1.4285714285714286" height="1.4285714285714286" fill="white" stroke="white" stroke-width="0.2" />

<rect x="177.14285714285714" y="249.21428571428572" width="1.4285714285714286" height="1.4285714285714286" fill="white" stroke="white" stroke-width="0.2" />

</g>

</svg>

