<?xml version="1.0" encoding="utf-8" standalone="no"?>
<!DOCTYPE svg PUBLIC "-//W3C//DTD SVG 1.1//EN" "http://www.w3.org/Graphics/SVG/1.1/DTD/svg11.dtd">

<svg width="210mm" height="297mm" viewBox="0 0 210 297" xmlns="http://www.w3.org/2000/svg" xmlns:xlink="http://www.w3.org/1999/xlink" version="1.1" style="stroke:black; fill:none; stroke-width:0.5pt; stroke-linejoin:round; text-anchor:middle" font-family="Helvetica, Arial, FreeSans, Sans, sans, sans-serif">

<g>

<rect x="85.0" y="121.0" width="5.0" height="5.0" fill="black" stroke="none" />

<rect x="85.0" y="131.0" width="5.0" height="5.0" fill="black" stroke="none" />

<rect x="85.0" y="141.0" width="5.0" height="5.0" fill="black" stroke="none" />

<rect x="85.0" y="151.0" width="5.0" height="5.0" fill="black" stroke="none" />

<rect x="85.0" y="161.0" width="5.0" height="5.0" fill="black" stroke="none" />

<rect x="85.0" y="171.0" width="5.0" height="5.0" fill="black" stroke="none" />

<rect x="90.0" y="126.0" width="5.0" height="5.0" fill="black" stroke="none" />

<rect x="90.0" y="136.0" width="5.0" height="5.0" fill="black" stroke="none" />

<rect x="90.0" y="146.0" width="5.0" height="5.0" fill="black" stroke="none" />

<rect x="90.0" y="156.0" width="5.0" height="5.0" fill="black" stroke="none" />

<rect x="90.0" y="166.0" width="5.0" height="5.0" fill="black" stroke="none" />

<rect x="95.0" y="121.0" width="5.0" height="5.0" fill="black" stroke="none" />

<rect x="95.0" y="131.0" width="5.0" height="5.0" fill="black" stroke="none" />

<rect x="95.0" y="141.0" width="5.0" height="5.0" fill="black" stroke="none" />

<rect x="95.0" y="151.0" width="5.0" height="5.0" fill="black" stroke="none" />

<rect x="95.0" y="161.0" width="5.0" height="5.0" fill="black" stroke="none" />

<rect x="95.0" y="171.0" width="5.0" height="5.0" fill="black" stroke="none" />

<rect x="100.0" y="126.0" width="5.0" height="5.0" fill="black" stroke="none" />

<rect x="100.0" y="136.0" width="5.0" height="5.0" fill="black" stroke="none" />

<rect x="100.0" y="146.0" width="5.0" height="5.0" fill="black" stroke="none" />

<rect x="100.0" y="156.0" width="5.0" height="5.0" fill="black" stroke="none" />

<rect x="100.0" y="166.0" width="5.0" height="5.0" fill="black" stroke="none" />

<rect x="105.0" y="121.0" width="5.0" height="5.0" fill="black" stroke="none" />

<rect x="105.0" y="131.0" width="5.0" height="5.0" fill="black" stroke="none" />

<rect x="105.0" y="141.0" width="5.0" height="5.0" fill="black" stroke="none" />

<rect x="105.0" y="151.0" width="5.0" height="5.0" fill="black" stroke="none" />

<rect x="105.0" y="161.0" width="5.0" height="5.0" fill="black" stroke="none" />

<rect x="105.0" y="171.0" width="5.0" height="5.0" fill="black" stroke="none" />

<rect x="110.0" y="126.0" width="5.0" height="5.0" fill="black" stroke="none" />

<rect x="110.0" y="136.0" width="5.0" height="5.0" fill="black" stroke="none" />

<rect x="110.0" y="146.0" width="5.0" height="5.0" fill="black" stroke="none" />

<rect x="110.0" y="156.0" width="5.0" height="5.0" fill="black" stroke="none" />

<rect x="110.0" y="166.0" width="5.0" height="5.0" fill="black" stroke="none" />

<rect x="115.0" y="121.0" width="5.0" height="5.0" fill="black" stroke="none" />

<rect x="115.0" y="131.0" width="5.0" height="5.0" fill="black" stroke="none" />

<rect x="115.0" y="141.0" width="5.0" height="5.0" fill="black" stroke="none" />

<rect x="115.0" y="151.0" width="5.0" height="5.0" fill="black" stroke="none" />

<rect x="115.0" y="161.0" width="5.0" height="5.0" fill="black" stroke="none" />

<rect x="115.0" y="171.0" width="5.0" height="5.0" fill="black" stroke="none" />

<rect x="120.0" y="126.0" width="5.0" height="5.0" fill="black" stroke="none" />

<rect x="120.0" y="136.0" width="5.0" height="5.0" fill="black" stroke="none" />

<rect x="120.0" y="146.0" width="5.0" height="5.0" fill="black" stroke="none" />

<rect x="120.0" y="156.0" width="5.0" height="5.0" fill="black" stroke="none" />

<rect x="120.0" y="166.0" width="5.0" height="5.0" fill="black" stroke="none" />

</g>

</svg>

