<?xml version="1.0" encoding="utf-8" standalone="no"?>
<!DOCTYPE svg PUBLIC "-//W3C//DTD SVG 1.1//EN" "http://www.w3.org/Graphics/SVG/1.1/DTD/svg11.dtd">

<svg width="210mm" height="297mm" viewBox="0 0 210 297" xmlns="http://www.w3.org/2000/svg" xmlns:xlink="http://www.w3.org/1999/xlink" version="1.1" style="stroke:black; fill:none; stroke-width:0.5pt; stroke-linejoin:round; text-anchor:middle" font-family="Helvetica, Arial, FreeSans, Sans, sans, sans-serif">

<g>

<circle cx="87.5" cy="123.5" r="1.0" fill="black" stroke="none" />

<circle cx="87.5" cy="128.5" r="1.0" fill="black" stroke="none" />

<circle cx="87.5" cy="133.5" r="1.0" fill="black" stroke="none" />

<circle cx="87.5" cy="138.5" r="1.0" fill="black" stroke="none" />

<circle cx="87.5" cy="143.5" r="1.0" fill="black" stroke="none" />

<circle cx="87.5" cy="148.5" r="1.0" fill="black" stroke="none" />

<circle cx="87.5" cy="153.5" r="1.0" fill="black" stroke="none" />

<circle cx="87.5" cy="158.5" r="1.0" fill="black" stroke="none" />

<circle cx="87.5" cy="163.5" r="1.0" fill="black" stroke="none" />

<circle cx="87.5" cy="168.5" r="1.0" fill="black" stroke="none" />

<circle cx="87.5" cy="173.5" r="1.0" fill="black" stroke="none" />

<circle cx="92.5" cy="123.5" r="1.0" fill="black" stroke="none" />

<circle cx="92.5" cy="128.5" r="1.0" fill="black" stroke="none" />

<circle cx="92.5" cy="133.5" r="1.0" fill="black" stroke="none" />

<circle cx="92.5" cy="138.5" r="1.0" fill="black" stroke="none" />

<circle cx="92.5" cy="143.5" r="1.0" fill="black" stroke="none" />

<circle cx="92.5" cy="148.5" r="1.0" fill="black" stroke="none" />

<circle cx="92.5" cy="153.5" r="1.0" fill="black" stroke="none" />

<circle cx="92.5" cy="158.5" r="1.0" fill="black" stroke="none" />

<circle cx="92.5" cy="163.5" r="1.0" fill="black" stroke="none" />

<circle cx="92.5" cy="168.5" r="1.0" fill="black" stroke="none" />

<circle cx="92.5" cy="173.5" r="1.0" fill="black" stroke="none" />

<circle cx="97.5" cy="123.5" r="1.0" fill="black" stroke="none" />

<circle cx="97.5" cy="128.5" r="1.0" fill="black" stroke="none" />

<circle cx="97.5" cy="133.5" r="1.0" fill="black" stroke="none" />

<circle cx="97.5" cy="138.5" r="1.0" fill="black" stroke="none" />

<circle cx="97.5" cy="143.5" r="1.0" fill="black" stroke="none" />

<circle cx="97.5" cy="148.5" r="1.0" fill="black" stroke="none" />

<circle cx="97.5" cy="153.5" r="1.0" fill="black" stroke="none" />

<circle cx="97.5" cy="158.5" r="1.0" fill="black" stroke="none" />

<circle cx="97.5" cy="163.5" r="1.0" fill="black" stroke="none" />

<circle cx="97.5" cy="168.5" r="1.0" fill="black" stroke="none" />

<circle cx="97.5" cy="173.5" r="1.0" fill="black" stroke="none" />

<circle cx="102.5" cy="123.5" r="1.0" fill="black" stroke="none" />

<circle cx="102.5" cy="128.5" r="1.0" fill="black" stroke="none" />

<circle cx="102.5" cy="133.5" r="1.0" fill="black" stroke="none" />

<circle cx="102.5" cy="138.5" r="1.0" fill="black" stroke="none" />

<circle cx="102.5" cy="143.5" r="1.0" fill="black" stroke="none" />

<circle cx="102.5" cy="148.5" r="1.0" fill="black" stroke="none" />

<circle cx="102.5" cy="153.5" r="1.0" fill="black" stroke="none" />

<circle cx="102.5" cy="158.5" r="1.0" fill="black" stroke="none" />

<circle cx="102.5" cy="163.5" r="1.0" fill="black" stroke="none" />

<circle cx="102.5" cy="168.5" r="1.0" fill="black" stroke="none" />

<circle cx="102.5" cy="173.5" r="1.0" fill="black" stroke="none" />

<circle cx="107.5" cy="123.5" r="1.0" fill="black" stroke="none" />

<circle cx="107.5" cy="128.5" r="1.0" fill="black" stroke="none" />

<circle cx="107.5" cy="133.5" r="1.0" fill="black" stroke="none" />

<circle cx="107.5" cy="138.5" r="1.0" fill="black" stroke="none" />

<circle cx="107.5" cy="143.5" r="1.0" fill="black" stroke="none" />

<circle cx="107.5" cy="148.5" r="1.0" fill="black" stroke="none" />

<circle cx="107.5" cy="153.5" r="1.0" fill="black" stroke="none" />

<circle cx="107.5" cy="158.5" r="1.0" fill="black" stroke="none" />

<circle cx="107.5" cy="163.5" r="1.0" fill="black" stroke="none" />

<circle cx="107.5" cy="168.5" r="1.0" fill="black" stroke="none" />

<circle cx="107.5" cy="173.5" r="1.0" fill="black" stroke="none" />

<circle cx="112.5" cy="123.5" r="1.0" fill="black" stroke="none" />

<circle cx="112.5" cy="128.5" r="1.0" fill="black" stroke="none" />

<circle cx="112.5" cy="133.5" r="1.0" fill="black" stroke="none" />

<circle cx="112.5" cy="138.5" r="1.0" fill="black" stroke="none" />

<circle cx="112.5" cy="143.5" r="1.0" fill="black" stroke="none" />

<circle cx="112.5" cy="148.5" r="1.0" fill="black" stroke="none" />

<circle cx="112.5" cy="153.5" r="1.0" fill="black" stroke="none" />

<circle cx="112.5" cy="158.5" r="1.0" fill="black" stroke="none" />

<circle cx="112.5" cy="163.5" r="1.0" fill="black" stroke="none" />

<circle cx="112.5" cy="168.5" r="1.0" fill="black" stroke="none" />

<circle cx="112.5" cy="173.5" r="1.0" fill="black" stroke="none" />

<circle cx="117.5" cy="123.5" r="1.0" fill="black" stroke="none" />

<circle cx="117.5" cy="128.5" r="1.0" fill="black" stroke="none" />

<circle cx="117.5" cy="133.5" r="1.0" fill="black" stroke="none" />

<circle cx="117.5" cy="138.5" r="1.0" fill="black" stroke="none" />

<circle cx="117.5" cy="143.5" r="1.0" fill="black" stroke="none" />

<circle cx="117.5" cy="148.5" r="1.0" fill="black" stroke="none" />

<circle cx="117.5" cy="153.5" r="1.0" fill="black" stroke="none" />

<circle cx="117.5" cy="158.5" r="1.0" fill="black" stroke="none" />

<circle cx="117.5" cy="163.5" r="1.0" fill="black" stroke="none" />

<circle cx="117.5" cy="168.5" r="1.0" fill="black" stroke="none" />

<circle cx="117.5" cy="173.5" r="1.0" fill="black" stroke="none" />

<circle cx="122.5" cy="123.5" r="1.0" fill="black" stroke="none" />

<circle cx="122.5" cy="128.5" r="1.0" fill="black" stroke="none" />

<circle cx="122.5" cy="133.5" r="1.0" fill="black" stroke="none" />

<circle cx="122.5" cy="138.5" r="1.0" fill="black" stroke="none" />

<circle cx="122.5" cy="143.5" r="1.0" fill="black" stroke="none" />

<circle cx="122.5" cy="148.5" r="1.0" fill="black" stroke="none" />

<circle cx="122.5" cy="153.5" r="1.0" fill="black" stroke="none" />

<circle cx="122.5" cy="158.5" r="1.0" fill="black" stroke="none" />

<circle cx="122.5" cy="163.5" r="1.0" fill="black" stroke="none" />

<circle cx="122.5" cy="168.5" r="1.0" fill="black" stroke="none" />

<circle cx="122.5" cy="173.5" r="1.0" fill="black" stroke="none" />

</g>

</svg>

